<?xml version="1.0" encoding="utf-8"?>
<!-- Generator: Adobe Illustrator 18.1.0, SVG Export Plug-In . SVG Version: 6.00 Build 0)  -->
<svg version="1.1" id="Layer_1" xmlns="http://www.w3.org/2000/svg" xmlns:xlink="http://www.w3.org/1999/xlink" x="0px" y="0px"
	 viewBox="0 0 50 50" enable-background="new 0 0 50 50" xml:space="preserve">
<path fill="#FCF7B9" d="M12,30.9c0.1,3.5,2.9,6.2,6.3,6.1c1.7,0,3.3-0.8,4.4-2c0.9,2.4,3.2,4,5.9,3.9c3.4-0.1,6.1-2.9,6-6.4
	c0-0.7-0.2-1.4-0.4-2c3.2-0.3,5.6-3.1,5.5-6.3c-0.1-3.4-2.9-6.2-6.3-6.1c-0.3,0-0.6,0-0.9,0.1c0.3-0.8,0.5-1.6,0.5-2.5
	c-0.1-3.4-2.9-6.2-6.3-6.1c-3.1,0.1-5.6,2.4-6,5.4c-1.1-1.1-2.7-1.8-4.4-1.7c-3.4,0.1-6.1,2.9-6,6.4c0.1,2.8,2,5.1,4.6,5.9
	C13.1,26.7,12,28.7,12,30.9z"/>
<path fill="#F16F9D" d="M20.4,24.2c0.1,2.2,1.9,3.9,4,3.9c2.2-0.1,3.9-1.9,3.8-4.1c0-2.2-1.9-3.9-4-3.9C22.1,20.2,20.4,22,20.4,24.2
	z"/>
</svg>
