<?xml version="1.0" encoding="utf-8"?>
<!-- Generator: Adobe Illustrator 18.1.0, SVG Export Plug-In . SVG Version: 6.00 Build 0)  -->
<svg version="1.1" id="Layer_1" xmlns="http://www.w3.org/2000/svg" xmlns:xlink="http://www.w3.org/1999/xlink" x="0px" y="0px"
	 viewBox="0 0 300 300" enable-background="new 0 0 300 300" xml:space="preserve">
<g>
	<g>
		<path fill="#DCE4E8" d="M47.3,121.1c0.1,0.2,0.1,0.3,0.2,0.5l0.3,0.6L103,238.2c0.1,0.3,0.3,0.6,0.4,0.9l2.7,5.7l0,0
			c16.9,34.7,60.6,46.9,98.7,28.7L87.2,26.4C49,44.6,31.2,86.9,47.3,121.1z"/>
		<path fill="#F7F9F8" d="M87.3,26.3C87.2,26.3,87.2,26.3,87.3,26.3l117.7,247.2c38.3-18.2,56.1-60.9,40-94.7l-0.4,0.2c0,0,0,0,0,0
			s0,0,0,0l0.4-0.2L186.1,55.3C169.8,21.1,125.6,8.1,87.3,26.3z"/>
	</g>
	<g>
		<path fill="#596374" d="M134.2,80c4.1,8.6-0.4,19.2-10,23.8c-9.6,4.6-20.6,1.3-24.7-7.2c-4.1-8.6,0.4-19.2,10-23.7
			C119,68.2,130.1,71.5,134.2,80z"/>
	</g>
</g>
</svg>
