<?xml version="1.0" encoding="utf-8"?>
<!-- Generator: Adobe Illustrator 18.1.0, SVG Export Plug-In . SVG Version: 6.00 Build 0)  -->
<svg version="1.1" id="Layer_1" xmlns="http://www.w3.org/2000/svg" xmlns:xlink="http://www.w3.org/1999/xlink" x="0px" y="0px"
	 viewBox="0 0 100 100" enable-background="new 0 0 100 100" xml:space="preserve">
<g>
	<path fill="#2BC4EC" d="M85.7,42.1c5.5,18.5-5.1,38-23.6,43.5c-18.5,5.5-38-5.1-43.5-23.6c-5.5-18.5,5.1-38,23.6-43.5
		C60.7,13,80.2,23.6,85.7,42.1z"/>
	<path fill="#FDBA12" d="M70.3,46.3c3,10.2-2.8,21-13,24c-10.2,3-21-2.8-24-13c-3-10.2,2.8-21,13-24C56.5,30.2,67.3,36,70.3,46.3z"
		/>
	<polygon fill="#FFFFFF" points="44.6,63.6 44.6,40.5 62.1,52.1 	"/>
</g>
</svg>
