<?xml version="1.0" encoding="utf-8"?>
<!-- Generator: Adobe Illustrator 18.1.0, SVG Export Plug-In . SVG Version: 6.00 Build 0)  -->
<svg version="1.1" id="Layer_1" xmlns="http://www.w3.org/2000/svg" xmlns:xlink="http://www.w3.org/1999/xlink" x="0px" y="0px"
	 viewBox="0 0 400 400" enable-background="new 0 0 400 400" xml:space="preserve">
<g>
	<path fill="#DCE4E8" d="M371.2,308.8c0,9.4-7.7,17-17.1,16.9l-305-1.3c-9.4,0-18-7.7-17.9-17.1c0,0,0.7-178,0.8-187s9-9,9-9
		l322,1.3c0,0,9,0,9,9C371.9,130.8,371.2,308.8,371.2,308.8z"/>
	<path fill="#F7F9F8" d="M390,112.9l-376-1.6c0,0-9,0-9-9c0-9,9-9,9-9l376,1.6c0,0,9,0,9,9C399,112.9,390,112.9,390,112.9z"/>
	<path opacity="0.3" fill="#B7BFC7" d="M371.9,129.8L31.4,260.6c0,0,0.5-131.2,0.6-140.2s9-9,9-9l322,1.3c0,0,9,0,9,9
		C371.9,130.8,371.9,129.8,371.9,129.8z"/>
	<g>
		
			<rect x="154.2" y="264.1" transform="matrix(1 4.160881e-03 -4.160881e-03 1 1.1962 -0.8328)" fill="#F7F9F8" width="93" height="46"/>
		<g>
			
				<rect x="82.8" y="144.6" transform="matrix(1 4.141544e-03 -4.141544e-03 1 0.6246 -0.379)" fill="#F7F9F8" width="18" height="12"/>
			
				<rect x="82.7" y="163.6" transform="matrix(1 4.143847e-03 -4.143847e-03 1 0.714 -0.3786)" fill="#F7F9F8" width="18" height="17"/>
			
				<rect x="82.6" y="187.6" transform="matrix(1 4.167418e-03 -4.167418e-03 1 0.8224 -0.4051)" fill="#F7F9F8" width="30" height="19"/>
			
				<rect x="82.5" y="212.7" transform="matrix(1 4.142754e-03 -4.142754e-03 1 0.9172 -0.429)" fill="#F7F9F8" width="43" height="17"/>
			
				<rect x="106.7" y="163.7" transform="matrix(1 4.169458e-03 -4.169458e-03 1 0.7191 -0.4831)" fill="#F7F9F8" width="19" height="17"/>
			
				<rect x="118.6" y="187.8" transform="matrix(1 4.119379e-03 -4.119379e-03 1 0.8137 -0.5261)" fill="#F7F9F8" width="19" height="19"/>
			
				<rect x="131.5" y="212.8" transform="matrix(1 4.169458e-03 -4.169458e-03 1 0.924 -0.5861)" fill="#F7F9F8" width="19" height="17"/>
			
				<rect x="155.5" y="212.9" transform="matrix(1 4.141544e-03 -4.141544e-03 1 0.9185 -0.6795)" fill="#F7F9F8" width="18" height="17"/>
			
				<rect x="180.5" y="213" transform="matrix(1 4.141544e-03 -4.141544e-03 1 0.9191 -0.783)" fill="#F7F9F8" width="18" height="17"/>
			
				<rect x="204.5" y="213.1" transform="matrix(1 4.158114e-03 -4.158114e-03 1 0.9234 -0.8859)" fill="#F7F9F8" width="18" height="17"/>
			
				<rect x="229.5" y="213.2" transform="matrix(1 4.194404e-03 -4.194404e-03 1 0.9321 -0.9985)" fill="#F7F9F8" width="18" height="17"/>
			
				<rect x="252.5" y="213.3" transform="matrix(1 4.119675e-03 -4.119675e-03 1 0.9161 -1.0775)" fill="#F7F9F8" width="19" height="17"/>
			
				<rect x="277.5" y="213.5" transform="matrix(1 4.163961e-03 -4.163961e-03 1 0.9269 -1.2432)" fill="#F7F9F8" width="43" height="17"/>
			
				<rect x="143.6" y="187.9" transform="matrix(1 4.141544e-03 -4.141544e-03 1 0.8187 -0.6304)" fill="#F7F9F8" width="18" height="19"/>
			
				<rect x="167.6" y="188" transform="matrix(1 4.121561e-03 -4.121561e-03 1 0.8154 -0.7283)" fill="#F7F9F8" width="19" height="19"/>
			
				<rect x="192.6" y="188.1" transform="matrix(1 4.146600e-03 -4.146600e-03 1 0.821 -0.8343)" fill="#F7F9F8" width="18" height="19"/>
			
				<rect x="216.6" y="188.2" transform="matrix(1 4.169458e-03 -4.169458e-03 1 0.8262 -0.9411)" fill="#F7F9F8" width="19" height="19"/>
			
				<rect x="241.6" y="188.3" transform="matrix(1 4.192101e-03 -4.192101e-03 1 0.8313 -1.0489)" fill="#F7F9F8" width="18" height="19"/>
			
				<rect x="265.6" y="188.4" transform="matrix(1 4.169458e-03 -4.169458e-03 1 0.8275 -1.1454)" fill="#F7F9F8" width="19" height="19"/>
			
				<rect x="290.6" y="188.5" transform="matrix(1 4.131491e-03 -4.131491e-03 1 0.8207 -1.261)" fill="#F7F9F8" width="30" height="19"/>
			
				<rect x="131.7" y="163.8" transform="matrix(1 4.175576e-03 -4.175576e-03 1 0.7208 -0.5882)" fill="#F7F9F8" width="19" height="17"/>
			
				<rect x="155.7" y="163.9" transform="matrix(1 4.143565e-03 -4.143565e-03 1 0.7159 -0.6811)" fill="#F7F9F8" width="18" height="17"/>
			
				<rect x="180.7" y="164" transform="matrix(1 4.152763e-03 -4.152763e-03 1 0.7181 -0.7864)" fill="#F7F9F8" width="18" height="17"/>
			
				<rect x="204.7" y="164.1" transform="matrix(1 4.149201e-03 -4.149201e-03 1 0.7181 -0.8853)" fill="#F7F9F8" width="18" height="17"/>
			
				<rect x="229.7" y="164.2" transform="matrix(1 4.146600e-03 -4.146600e-03 1 0.7183 -0.9884)" fill="#F7F9F8" width="18" height="17"/>
			
				<rect x="252.7" y="164.3" transform="matrix(1 4.169458e-03 -4.169458e-03 1 0.7229 -1.0918)" fill="#F7F9F8" width="19" height="17"/>
			
				<rect x="277.7" y="164.5" transform="matrix(1 4.133986e-03 -4.133986e-03 1 0.7177 -1.2355)" fill="#F7F9F8" width="43" height="17"/>
			
				<rect x="82.4" y="235.6" transform="matrix(1 4.141544e-03 -4.141544e-03 1 1.016 -0.3765)" fill="#F7F9F8" width="18" height="19"/>
			
				<rect x="106.4" y="235.7" transform="matrix(1 4.119379e-03 -4.119379e-03 1 1.0112 -0.4754)" fill="#F7F9F8" width="19" height="19"/>
			
				<rect x="131.4" y="236" transform="matrix(1 4.155470e-03 -4.155470e-03 1 1.0219 -0.785)" fill="#F7F9F8" width="116" height="19"/>
			
				<rect x="252.4" y="236.3" transform="matrix(1 4.167276e-03 -4.167276e-03 1 1.0267 -1.0894)" fill="#F7F9F8" width="19" height="19"/>
			
				<rect x="277.4" y="236.4" transform="matrix(1 4.189093e-03 -4.189093e-03 1 1.0328 -1.1998)" fill="#F7F9F8" width="19" height="19"/>
			
				<rect x="302.4" y="236.5" transform="matrix(1 4.143847e-03 -4.143847e-03 1 1.0222 -1.2884)" fill="#F7F9F8" width="18" height="19"/>
			
				<rect x="106.8" y="144.7" transform="matrix(1 4.121561e-03 -4.121561e-03 1 0.6222 -0.4781)" fill="#F7F9F8" width="19" height="12"/>
			
				<rect x="131.8" y="144.8" transform="matrix(1 4.169458e-03 -4.169458e-03 1 0.6301 -0.5879)" fill="#F7F9F8" width="19" height="12"/>
			
				<rect x="155.8" y="144.9" transform="matrix(1 4.141544e-03 -4.141544e-03 1 0.6265 -0.6813)" fill="#F7F9F8" width="18" height="12"/>
			
				<rect x="180.8" y="145" transform="matrix(1 4.141544e-03 -4.141544e-03 1 0.6271 -0.7848)" fill="#F7F9F8" width="18" height="12"/>
			
				<rect x="204.8" y="145.1" transform="matrix(1 4.148589e-03 -4.148589e-03 1 0.6288 -0.8857)" fill="#F7F9F8" width="18" height="12"/>
			
				<rect x="229.8" y="145.2" transform="matrix(1 4.143520e-03 -4.143520e-03 1 0.6287 -0.9882)" fill="#F7F9F8" width="18" height="12"/>
			
				<rect x="252.8" y="145.3" transform="matrix(1 4.169458e-03 -4.169458e-03 1 0.6332 -1.0924)" fill="#F7F9F8" width="19" height="12"/>
			
				<rect x="277.8" y="145.4" transform="matrix(1 4.191275e-03 -4.191275e-03 1 0.6372 -1.2029)" fill="#F7F9F8" width="19" height="12"/>
			
				<rect x="302.8" y="145.5" transform="matrix(1 4.143847e-03 -4.143847e-03 1 0.6306 -1.2908)" fill="#F7F9F8" width="18" height="12"/>
		</g>
	</g>
	
		<rect x="121" y="112.1" transform="matrix(1 4.156767e-03 -4.156767e-03 1 0.4863 -0.8385)" fill="#DCE4E8" width="162" height="9"/>
</g>
</svg>
