<?xml version="1.0" encoding="utf-8"?>
<!-- Generator: Adobe Illustrator 18.1.0, SVG Export Plug-In . SVG Version: 6.00 Build 0)  -->
<svg version="1.1" id="Layer_1" xmlns="http://www.w3.org/2000/svg" xmlns:xlink="http://www.w3.org/1999/xlink" x="0px" y="0px"
	 viewBox="828.8 117.8 312 858.1" enable-background="new 828.8 117.8 312 858.1" xml:space="preserve">
<g>
	<path fill="#FBCB9D" d="M859.8,611.5l0.1,5.5l1,23.5c0,0,2.4,15.9,18.2,16.7c20.9,1.1,22.2-17.3,22.2-17.3l0.5-25.4L859.8,611.5z"
		/>
</g>
<g>
	<path fill="#6B292C" d="M902.8,642.5l-9.4,11.4l-9,268.3h60.8l12.4-236.7h11.2l27.1,236.7h57.4l-27.1-265.8l-12.4-22
		C1013.7,634.4,929.2,634,902.8,642.5z"/>
</g>
<g>
	<path fill="#E54D39" d="M860.5,951.5h96.7c0,0-1-40.1-43.6-43.6C871,904.6,860.5,951.5,860.5,951.5z"/>
</g>
<g>
	<path fill="#E54D39" d="M976.7,951.5l96.6-1.5c0,0-1.7-40.1-44.3-42.9C986.3,904.4,976.7,951.5,976.7,951.5z"/>
</g>
<g>
	<path fill="#5B2327" d="M957.5,687.4c-10.9,0-16.5-8.6-16.7-8.9c-0.6-1-0.2-2.1,0.6-2.6c1-0.6,2.1-0.2,2.7,0.6
		c0.2,0.2,4.6,7.1,13.3,7.1H970c-0.1,0,8.4-1.7,12.5-7.1c0.6-0.8,1.9-1.1,2.7-0.5s1.1,1.8,0.5,2.7c-5,6.9-14.8,8.7-15.3,8.8
		L957.5,687.4z"/>
</g>
<path fill="#F7931D" d="M973.1,412l14.4-22.7l19.6,29.3c0,0,39.1-4.5,44.1,2.9c3.1,4.6,46.9,97,47.9,100.8c1,3.9,5.5,16.4-3,28.5
	c-8.4,12.1-45.6,65.3-45.6,65.3l-31.2-29.9l36.2-53.7l-29.3-64.9v188.6H893.3l0.1-39.2l-36.7-0.5l8-179.5c0,0-1.5-31.5,20.5-30.1
	c14,1,30.3,1,30.3,1l17.6-22.7l14.8,27.1L973.1,412z"/>
<g>
	<path fill="#1C1E23" d="M893.3,462.5c-2.3-0.1-4.4,154.5-4.4,154.5h4.4C893.4,617.1,893.3,462.5,893.3,462.5z"/>
</g>
<g>
	<rect x="959.1" y="419.8" fill="#1C1E23" width="2.1" height="236.6"/>
</g>
<g>
	<polygon fill="#1C1E23" points="915.6,408.1 904.7,421.4 937.5,418.6 909.2,419.8 	"/>
</g>
<g>
	<polygon fill="#1C1E23" points="1002.7,413.1 1013.5,426.4 980.8,423.4 1009.1,424.6 	"/>
</g>
<g>
	<ellipse fill="#1C1E23" cx="972.4" cy="452.9" rx="5.2" ry="5.1"/>
</g>
<g>
	<ellipse fill="#1C1E23" cx="972.4" cy="495.9" rx="5.2" ry="5.1"/>
</g>
<g>
	<ellipse fill="#1C1E23" cx="972.4" cy="538.9" rx="5.2" ry="5.1"/>
</g>
<g>
	<ellipse fill="#1C1E23" cx="972.4" cy="581.9" rx="5.2" ry="5.1"/>
</g>
<g>
	<ellipse fill="#1C1E23" cx="972.4" cy="624.9" rx="5.2" ry="5.1"/>
</g>
<g>
	<rect x="905.8" y="457.9" fill="#1C1E23" width="32.7" height="9.1"/>
</g>
<g>
	<path fill="#FBCB9D" d="M1019.7,583.7l-3.7,4l-15.8,17.7c0,0-9.5,13.2,1.4,24.3c14.4,14.8,28.4,2.3,28.4,2.3l18.3-18.2
		L1019.7,583.7z"/>
</g>
<g>
	<g>
		<path fill="#EAB894" d="M1059.5,298.4c0.1-7-1-13.8-0.4-20.5l-0.5-0.7c0,0-11.6-14-27-1c-11.5,9.9-4,24-4,24l12,18.4
			C1050,316.2,1059.3,311.6,1059.5,298.4z"/>
	</g>
	<g>
		<path fill="#FBCB9D" d="M944.2,375.1v31.8c0,0,0,12.9,17.1,12.9s16.3-12.9,16.3-12.9l0.8-34.1L944.2,375.1z"/>
	</g>
	<g>
		<path fill="#EAB894" d="M978,385.4l0.4-12.6l-34.1,2.3V387C955.8,390,966.8,387.7,978,385.4z"/>
	</g>
	<g>
		<path fill="#1E1E1E" d="M894,286.4c0,0-23.4-16.2-25.1-54.3c-1.8-38.1,22.8-33.3,22.8-33.3s-6.3-21,10.8-37.7
			c17.1-16.6,72-32.2,113.7-5.9c41.7,26.4,64.5,88.1,32,131C1015.6,329.3,894,286.4,894,286.4z"/>
	</g>
	<g>
		<path fill="#FBCB9D" d="M886.9,250.9c0,0-3.1,76.1,0,88.5c3.1,12.2,13.8,45.5,63.8,45s84.3-19.6,86.8-49.8c2.5-30.2,0-56.7,0-56.7
			s-29.3,5.2-29.3-27.1c0,0-24.3,0.6-23.2-23.9c0,0-25.9,3.2-22.9-25.8L942,196c0,0,4.9,15.4-8.3,24.6c-13.2,9-22.4,3.9-22.4,3.9
			S914,249,886.9,250.9z"/>
	</g>
	<g>
		<ellipse fill="#FBCB9D" cx="1038.7" cy="296.4" rx="18.4" ry="19"/>
	</g>
	<g>
		<polygon fill="#EAB894" points="948.4,285.4 969.1,285.4 975.6,310.3 940.9,308.9 		"/>
	</g>
	<g>
		<path fill="#402E27" d="M1008.1,275.8c0,5.5-4.3,9.9-9.5,9.9s-9.5-4.4-9.5-9.9s4.3-9.9,9.5-9.9
			C1003.9,265.9,1008.1,270.5,1008.1,275.8z"/>
	</g>
	<g>
		<path fill="#402E27" d="M935.2,275.8c0,5.5-4.3,9.9-9.5,9.9s-9.5-4.4-9.5-9.9s4.3-9.9,9.5-9.9S935.2,270.5,935.2,275.8z"/>
	</g>
	<g>
		<path fill="#402E27" d="M918.7,340.2c-0.6,0-1.2,0.2-1.5,0.6c-0.6,0.6-0.4,1.5,0.5,1.9c1.1,0.6,25.9,13.1,47.4,12.7
			c21.6-0.5,40.4-12.4,41.2-12.8s0.8-1.4,0.2-1.9c-0.7-0.6-1.9-0.6-2.6-0.1c-0.2,0.1-18.5,11.6-38.8,12.1
			c-20.5,0.5-44.9-12.1-45.1-12.2C919.5,340.2,919.2,340.2,918.7,340.2z"/>
	</g>
	<g>
		<rect x="942.7" y="272" stroke="#000000" stroke-width="3" stroke-miterlimit="10" width="38.7" height="4.3"/>
	</g>
	<g>
		<path fill="none" stroke="#000000" stroke-width="4" stroke-miterlimit="10" d="M942.7,282.8c0,4.5-3,8.2-6.8,8.2h-26.5
			c-3.7,0-6.8-3.7-6.8-8.2v-13.1c0-4.5,3-8.2,6.8-8.2h26.5c3.7,0,6.8,3.7,6.8,8.2V282.8z"/>
	</g>
	<g>
		<path fill="none" stroke="#000000" stroke-width="4" stroke-miterlimit="10" d="M1019.7,282.8c0,4.5-3,8.2-6.8,8.2h-26.5
			c-3.7,0-6.8-3.7-6.8-8.2v-13.1c0-4.5,3-8.2,6.8-8.2h26.5c3.7,0,6.8,3.7,6.8,8.2V282.8z"/>
	</g>
</g>
</svg>
