<?xml version="1.0" encoding="utf-8"?>
<!-- Generator: Adobe Illustrator 18.1.0, SVG Export Plug-In . SVG Version: 6.00 Build 0)  -->
<svg version="1.1" id="Layer_1" xmlns="http://www.w3.org/2000/svg" xmlns:xlink="http://www.w3.org/1999/xlink" x="0px" y="0px"
	 viewBox="797.2 -11.2 312 978.2" enable-background="new 797.2 -11.2 312 978.2" xml:space="preserve">
<g>
	<path fill="#4D3A2D" d="M1622.5,1073.2c-12,2.5-97,2.7-100.5-4.2"/>
</g>
<g>
	<path fill="#4D3A2D" d="M1389.3,1071.3c11.4,2.4,92.9,2.6,96.1-3.9"/>
</g>
<g>
	<path fill="#FBCB9D" d="M855.2,404.6l-5.3,193.1c0,0,4.5,14.7,15.8,15.2c15.8,0.8,18.8-19.1,18.8-19.1l2.7-200.3L855.2,404.6z"/>
</g>
<g>
	<path fill="#FBCB9D" d="M1044.5,404.6l5.3,193.1c0,0-4.5,14.7-15.8,15.2c-15.8,0.8-18.8-19.1-18.8-19.1l-2.7-200.3L1044.5,404.6z"
		/>
</g>
<g>
	<path fill="#4D3A2D" d="M1036.2,884.7c0,0,15.6,12.2,35.3,15.8c19.7,3.6,15.2,29.6,3.1,32.8c-12.1,3.2-98.6,3.6-101.9-5.5
		c-3.4-9,4.8-31.8,4.8-31.8L1036.2,884.7z"/>
</g>
<g>
	<path fill="#4D3A2D" d="M874.5,884.3c0,0-14.8,11.8-33.7,15.2c-18.9,3.4-14.5,28.3-2.9,31.4c11.6,3.1,94.3,3.4,97.5-5.2
		c3.3-8.7-4.5-30.5-4.5-30.5L874.5,884.3z"/>
</g>
<g>
	<polygon fill="#252625" points="885.2,549.4 874.5,884.3 932,898.8 944.6,621.1 955,621.1 976.3,898.8 1038.3,886.2 1020.1,547.9 	
		"/>
</g>
<g>
	<path fill="#1E1E1E" d="M954.3,620.6c-1.2,0-2.4,0-3.7,0h-3.9c-9.3,0-15.9-2.3-16.2-2.4c-1-0.4-1.5-1.5-1.3-2.9
		c0.2-1.2,1.3-1.9,2.4-1.5c0,0,6.3,2.1,15.1,2.1h3.9c7.4,0.1,13.7,0.1,17.3-2c1-0.6,2-0.1,2.5,1c0.5,1.1,0.1,2.5-0.8,3
		C965.8,620.3,960.5,620.6,954.3,620.6z"/>
</g>
<g>
	<path fill="#6EC1B5" d="M875.2,300.2c0,0,43.2-12.9,67.5-15.2c24.3-2.3,82.1,15.2,82.1,15.2s17.7,3.9,21.3,49.1l3.8,58.8
		c0,0-17.9,5.6-35.5,3.9l6.2,144.9H885.2l1.4-141.5l-38.8-2.9C847.8,412.4,843.5,308.6,875.2,300.2z"/>
</g>
<g>
	<path fill="#2B3E4C" d="M944,314.1c8.6-0.5,22.4,0.2,27.2-9.6c2.6-5.5,3-11.4,3.1-17.5c-11.2-1.7-21.6-2.6-29.2-2
		c-8,0.7-17.8,2.4-27.7,4.3C919.7,303.7,928.8,314.8,944,314.1z"/>
</g>
<g>
	<polygon fill="#2B3E4C" points="948.7,357.2 963.9,393.9 998.1,399.8 973.4,428.5 979.3,468.8 948.7,449.7 918.1,468.8 
		923.9,428.5 899.2,399.8 933.4,393.9 	"/>
</g>
<g>
	<path fill="#492027" d="M933.5,58.6c0,0-39.2,12.1-52,3.9c0,0,48.7-36.8,70.6-35.6c21.9,1.1,22.2,11.3,22.2,11.3s-3.3,9.5-3.3,22.9
		L933.5,58.6z"/>
</g>
<g>
	<g>
		<path fill="#735D45" d="M934,66.1c0,0-5.7-4.9-2.4-8.8c3.4-3.9,13.5-5.7,22.2-4.8c8.7,1,14.8,2.3,17.7,6.9c3,4.5,2.6,8,2.6,8
			L934,66.1z"/>
	</g>
	<g>
		<path fill="#3A2D20" d="M931.1,62.3c1,2.1,2.9,3.8,2.9,3.8l40.3,1.3c0,0,0.1-1.2-0.5-3C962.3,55,944.5,56.4,931.1,62.3z"/>
	</g>
	<g>
		<path fill="#735D45" d="M930.3,71.6c0,0-1.9-6.5,3.1-9.3c5-2.7,16.7-3.7,25.4-2.3S976,64.8,975,71.6
			C974,78.5,930.3,71.6,930.3,71.6z"/>
	</g>
</g>
<g>
	<g>
		<path fill="#FBCB9D" d="M933.1,265.6v29.6c0,0,0,11.2,16.7,11c14.5,0,13.3-12,13.3-12v-28.6L933.1,265.6L933.1,265.6z"/>
	</g>
	<g>
		<path fill="#F1BF8C" d="M933.2,274.9c4.4,2.1,10.8,1,15.8,0.8c5-0.1,9.6-1,14.1-2.1v-8.1h-30.1v9.3
			C933.2,274.9,933.2,274.9,933.2,274.9z"/>
	</g>
</g>
<g>
	<path fill="#492027" d="M893.6,239.5l-21.9,6.5c0,0-11.3-76.8-11.3-100.7c-0.1-23.9,12.8-77.7,86.2-77.7s89.1,47.2,91.5,72.8
		S1027.4,246,1027.4,246l-26.4-6.4L893.6,239.5z"/>
</g>
<g>
	<path fill="#FBCB9D" d="M989.5,125.1c-25.9-2.4-36.1,18.6-36.1,18.6s-12.9-21.6-40.4-17.1c-27.4,4.5-31.5,28.6-31.5,28.6v87.4
		c0,16.3,30.9,29.5,69.1,29.5c38.1,0,69.1-13.2,69.1-29.5c0,0-0.1-73,0-84.6C1019.8,146.5,1015.4,127.6,989.5,125.1z"/>
</g>
<g>
	<path fill="#FBCB9D" d="M894.2,197.8c0,8.6-7.8,15.4-17.6,15.4c-9.6,0-17.6-6.9-17.6-15.4s7.8-15.4,17.6-15.4
		S894.2,189.2,894.2,197.8z"/>
</g>
<g>
	<path fill="#FBCB9D" d="M1040.4,197.8c0,8.6-7.8,15.4-17.6,15.4c-9.6,0-17.6-6.9-17.6-15.4s7.8-15.4,17.6-15.4
		S1040.4,189.2,1040.4,197.8z"/>
</g>
<g>
	<polygon fill="#ECBB8E" points="954.2,168.8 944.7,168.8 936.5,223.6 963.9,223.6 	"/>
</g>
<g>
	<g>
		<path fill="#353029" d="M923,179.6c0,5.9-5.5,10.8-12.2,10.8s-12.2-4.9-12.2-10.8s5.5-10.8,12.2-10.8S923,173.7,923,179.6z"/>
	</g>
</g>
<g>
	<g>
		<path fill="#353029" d="M1001,179.6c0,5.9-5.5,10.8-12.2,10.8s-12.2-4.9-12.2-10.8s5.5-10.8,12.2-10.8S1001,173.7,1001,179.6z"/>
	</g>
</g>
<g>
	<path fill="#353029" d="M915.5,246c-0.8,0-1.5-0.6-1.5-1.3s0.6-1.4,1.4-1.4c0.5,0,53.7-3,70-22.7c0.5-0.6,1.5-0.7,2.1-0.4
		c0.7,0.5,0.8,1.3,0.4,1.9C970.8,242.9,917.8,245.9,915.5,246C915.6,246,915.5,246,915.5,246z"/>
</g>
</svg>
