<?xml version="1.0" encoding="utf-8"?>
<!-- Generator: Adobe Illustrator 18.1.0, SVG Export Plug-In . SVG Version: 6.00 Build 0)  -->
<svg version="1.1" id="Layer_1" xmlns="http://www.w3.org/2000/svg" xmlns:xlink="http://www.w3.org/1999/xlink" x="0px" y="0px"
	 viewBox="312 226 180 482" enable-background="new 312 226 180 482" xml:space="preserve">
<path fill="#4D311E" d="M395.1,266.6c0,0-30.9,4.4-44.8,31.2c-13.9,26.8-8.4,41.3-18.6,90.8l7.7-11.9c0,0-4.9,18.3-4.9,40
	s6.2,57.8,28.4,55.2c22.1-2.6,24.8-29.5,24.8-29.5l29.5-3c0,0,9,31.1,25.6,31.1c25.9,0,25.4-49.6,24.5-62.5
	c-0.9-12.9-3.5-31.2-3.5-31.2l4.9,2.6c0,0-3.5-18.1-5.2-32C461.8,333.7,456.9,255.8,395.1,266.6z"/>
<g>
	<path fill="#FFD8A0" d="M429.9,437.4l1.2,81c0,0,1.5,9,8.6,9.4c7.1,0.4,8.6-9.8,8.6-9.8l-1.3-83L429.9,437.4z"/>
</g>
<g>
	<path fill="#FFD8A0" d="M350.5,436.4v81c0,0,1.4,9.1,8.5,9.7c7.1,0.5,8.7-9.7,8.7-9.7v-83L350.5,436.4z"/>
</g>
<g>
	<polygon fill="#FFD8A0" points="400.8,528.5 422.6,526.9 414.2,667 425,674.7 427.3,678.7 422.6,680.9 408.6,676 403,667.8 
		400.8,664.7 400.8,664.7 400.8,664.7 	"/>
</g>
<g>
	<path fill="#E34E38" d="M412.1,673.2c3,2,6.5,5.1,10.1,4.5c2-0.3,2.7-1.5,2.6-3.1c4.9,3.5,10,7.2,11.1,8.4c2.4,2.5,3.2,5.8,0,5.7
		s-28.4-7.7-28.4-7.7v5.7h-6.7v-22C404.6,667.5,408.2,670.6,412.1,673.2z"/>
</g>
<g>
	<polygon fill="#FFD8A0" points="396.2,528.5 374.3,526.9 382.8,667 372,674.7 369.6,678.7 374.3,680.9 388.3,676 394,667.8 
		396.2,664.7 396.2,664.7 396.2,664.7 	"/>
</g>
<g>
	<path fill="#44413F" d="M367,495.2l-3.3,4.9c0,0-5.4,27.7-6.4,41c-1,13.2,8.9,62.8,8.9,62.8h67.1c0,0,8.6-51.4,8.6-62.8
		c-0.1-11.4-6.9-41-6.9-41l-5.2-4.6L367,495.2z"/>
</g>
<g>
	<path fill="#E34E38" d="M363.6,490.8h71.2l3.7-72.6c0,0-5.7-9.8-24.7-12.9c-4.8-0.8-10.3-1.2-16.2-1.1c-6.1,0.1-11.4,0.8-16,1.7
		c-18.5,3.8-22.3,12.3-22.3,12.3L363.6,490.8z"/>
</g>
<g>
	<path fill="#44413F" d="M387.8,406l-8.1-3.1c0,0-15.8,1.5-10,16.6c4.5,11.6,24.1,5.1,27.4,0c0,0,12.2,11.8,23.7,2
		c9.1-7.7,4.3-18.2-6.7-19.6C403.2,400.5,387.8,406,387.8,406z"/>
</g>
<g>
	<rect x="397.1" y="414.3" fill="#6B4249" width="1.4" height="76.5"/>
</g>
<g>
	<path fill="#FFD8A0" d="M407.9,382.4h-17.2l0.1,18.6c0.4,4.6,4,8.2,8.4,8.2c4.4,0,7.9-3.6,8.4-8.2L407.9,382.4z"/>
</g>
<g>
	<path fill="#EDC490" d="M407.8,392.5l0.1-10.1h-17.2l0.1,10.9C398.6,395,402.2,393.9,407.8,392.5z"/>
</g>
<g>
	<path fill="#FFD8A0" d="M407.9,294c0,0,8.5,26.6,36.9,35.2c0,0,4,50.7-3.3,56.1c-7.2,5.3-28.7,7.3-39.7,7.3
		c-10.8,0-36.2-1.3-39.7-6.4c-3.5-5-3.5-38.6-3.5-38.6s29.5-5.2,36.6-39.6l-5.2,22.5C389.9,330.4,408.7,315.4,407.9,294z"/>
</g>
<g>
	<path fill="#EDC490" d="M392,347.1h15.7c0,0,6.1,20.3-7.8,21.4C385.9,369.4,392,347.1,392,347.1z"/>
</g>
<g>
	<g>
		<path fill="#352215" d="M432.7,341.4c0,4.8-3,8.7-6.7,8.7s-6.7-3.9-6.7-8.7c0-4.7,3-8.7,6.7-8.7S432.7,336.6,432.7,341.4z"/>
	</g>
</g>
<g>
	<path fill="#352215" d="M376.7,350.2c3.7,0,6.7-3.9,6.7-8.7c0-2.6-0.9-4.9-2.3-6.4c-3.7,3.7-7.5,6.3-11,8.2
		C370.8,347.1,373.5,350.2,376.7,350.2z"/>
</g>
<g>
	<path fill="#E34E38" d="M366.2,411.7c0,0-18.6,14.5-23,27.6c-4.4,13.1,22.1,11.3,22.1,11.3L366.2,411.7z"/>
</g>
<g>
	<path fill="#E34E38" d="M432.8,412.5c0,0,19.8,13.7,24.3,26.8c4.4,13.2-20.9,13.7-20.9,13.7L432.8,412.5z"/>
</g>
<g>
	<rect x="363.6" y="490.8" fill="#6B4249" width="71.2" height="9.2"/>
</g>
<g>
	<path fill="#E34E38" d="M384.8,673.2c-3,2-6.5,5.1-10.1,4.5c-2-0.3-2.7-1.5-2.6-3.1c-4.9,3.5-10,7.2-11.1,8.4
		c-2.4,2.5-3.2,5.8,0,5.7s28.4-7.7,28.4-7.7v5.7h6.7v-22C392.4,667.5,388.7,670.6,384.8,673.2z"/>
</g>
<g>
	<path fill="#CE3432" d="M400,380.8c-13.2,0-21.8-6.6-22-6.7c-0.4-0.4-0.4-0.9-0.1-1.3c0.3-0.4,0.8-0.5,1.2-0.1
		c0.3,0.2,18.4,14.1,43-0.1c0.4-0.3,1-0.1,1.1,0.4c0.3,0.5,0.1,1.1-0.4,1.2C414.4,379.2,406.6,380.8,400,380.8z"/>
</g>
</svg>
