<?xml version="1.0" encoding="utf-8"?>
<!-- Generator: Adobe Illustrator 18.1.0, SVG Export Plug-In . SVG Version: 6.00 Build 0)  -->
<svg version="1.1" id="Layer_1" xmlns="http://www.w3.org/2000/svg" xmlns:xlink="http://www.w3.org/1999/xlink" x="0px" y="0px"
	 viewBox="0 0 271.9 840.6" enable-background="new 0 0 271.9 840.6" xml:space="preserve">
<g>
	<path fill="#492027" d="M162.1,54.4"/>
</g>
<g>
	<path fill="#FCCC9E" d="M35.9,460.2l0.1,5.3l0.8,23.1c0,0,2,15.6,15.8,16.4c18.3,1.1,19.4-17,19.4-17l0.4-25L35.9,460.2z"/>
</g>
<g>
	<path fill="#FCCC9E" d="M231.3,458.2l-0.1,5.3l-0.8,23.1c0,0-2,15.6-15.8,16.4c-18.3,1.1-19.4-17-19.4-17l-0.4-25L231.3,458.2z"/>
</g>
<g>
	<g>
		<polygon fill="#313D4A" points="77.3,486.9 64.9,802.8 115.7,808.2 127.3,567.2 137.6,567.2 156.7,808.2 202.9,804.8 189.1,486.9 
					"/>
	</g>
	<g>
		<path fill="#171717" d="M49.2,816.7l66.7,2.4c0,0,6.5-31.8-19.5-41.3C69.7,768,44.8,792,49.2,816.7z"/>
	</g>
	<g>
		<path fill="#171717" d="M214,816.7l-66.7,2.4c0,0-6.5-31.8,19.5-41.3C193.4,768,218.3,792,214,816.7z"/>
	</g>
	<g>
		<path fill="#253039" d="M128.7,567.2c-9.6,0-14.4-8.3-14.6-8.7c-0.5-0.8-0.2-2.1,0.5-2.7c0.8-0.6,1.8-0.2,2.4,0.6
			c0.2,0.2,4.1,6.9,11.7,6.9h11.1c-0.1,0,7.3-1.7,10.8-7c0.5-0.8,1.6-1.1,2.5-0.5c0.8,0.6,1,1.8,0.4,2.7c-4.4,6.8-13,8.6-13.3,8.6
			L128.7,567.2z"/>
	</g>
</g>
<g>
	<polygon fill="#282C2D" points="90,288.7 115.5,277 152.8,277 179.8,290.5 195.2,485.9 73.1,485.9 	"/>
</g>
<g>
	<rect x="64.9" y="480.6" fill="#1F2123" width="125.3" height="17.5"/>
</g>
<g>
	<path fill="#DCA476" d="M121.7,246.6V279c0,0,1.3,11.5,17.1,10.3c15.8-1.2,14.4-10.3,14.4-10.3v-32.3H121.7z"/>
</g>
<g>
	<path fill="#1E1E1E" d="M49.3,180.4c0,0-2-61.7,7.1-89.1c9-27.5,73.1-69.4,73.1-69.4l-9,21.1c0,0,26.3-22.8,48.2-24.9l-16,21.2
		c0,0,26.9-19.9,53-16.1l-25.3,15.2c0,0,27.8-11.9,48.1-4L206,48.9c0,0,26.5-4.3,39.9,7.8c0,0-21.8,4.1-23.1,13.3
		s-3.5,109.5-3.5,109.5L49.3,180.4z"/>
</g>
<g>
	<ellipse fill="#FCCC9E" cx="58.5" cy="175.8" rx="11.5" ry="14.1"/>
</g>
<g>
	<ellipse fill="#FCCC9E" cx="210.1" cy="173.5" rx="11.5" ry="14.1"/>
</g>
<g>
	<path fill="#FCCC9E" d="M63.1,131.1c0,0-7.4,121.8-1.1,124.2c6.3,2.5,129.7,2.7,141-4.8c11.2-7.7,1.6-117.8,1.6-117.8
		s-1.3-34.8-35.6-43.2c-23.4-5.7-33.9,35.4-33.9,35.4s-10.3-31.2-44.5-27.9C66.8,99.3,63.1,131.1,63.1,131.1z"/>
</g>
<g>
	<path fill="#1E1E1E" d="M176.6,201.4c-2.1-6.8-7.8-7.1-12.9-6.8c-7.1,0.4-14.3,0.8-21.4,0.9c-9.7,0.2-19.4,0.8-29.1,1.5
		c-5.1,0.4-14.5-0.8-17.8,5.2c-2.4,4.4-2.2,10.4-2.4,15.5c-0.3,5.9-0.5,12-0.4,18c0.1,7.1,0.4,14.3,1.2,21.3c1.7,0,3.5,0,5.3,0
		c0.8-8.4,1-25,1-25s-0.1-15.5,3.7-20.6c8.8-11.9,23.5-5.7,35-7.4c9.8-1.4,28.2-3,29.8,10.2c0.9,7.5,0.7,22.2,0.7,22.2
		s0.4,12.8-0.1,18.9c2.4-0.1,4.7-0.3,7-0.4c-0.2-13.3,0-26.6,0.6-39.8C177,210.9,177.8,205.5,176.6,201.4z"/>
</g>
<g>
	<path fill="#1E1E1E" d="M98,240.9c-7-4.8-17.9-8.6-21.5-18.5c-2.1-5.8-2.1-12.1-1.7-18.4c0.3-7.4,2.2-19.5-3.2-25.1
		c-3.1-3.2-6.7-5.6-10.4-7.7c-1.6,35.7-3,82.6,1,84c2.9,1.1,30.4,1.9,60.4,1.5C115.2,250,105.8,246.4,98,240.9z"/>
</g>
<g>
	<path fill="#1E1E1E" d="M203.5,172.1c-6.4-0.2-10.5,1.5-10.6,10.3c-0.1,8.4,1.7,18-2.6,25.2c-6.7,11.2-16.2,18.7-23.8,28.8
		c-5,6.5-9.7,13.2-14.6,19.7c25.1-0.9,46.6-2.6,51.1-5.7c6.7-4.6,6-45.8,4.3-78.1C206,172.3,204.7,172.2,203.5,172.1z"/>
</g>
<g>
	<ellipse fill="#2D2A27" cx="90.6" cy="144.3" rx="8.4" ry="10.3"/>
</g>
<g>
	<ellipse fill="#2D2A27" cx="171.7" cy="144.3" rx="8.4" ry="10.3"/>
</g>
<g>
	<path fill="#2D2A27" d="M76,128.3c-0.7,0-1.3-0.7-1.4-1.5c-0.1-1,0.4-1.9,1.2-2l18.4-3.2c0.8-0.1,1.5,0.5,1.6,1.4
		c0.1,1-0.4,1.9-1.2,2l-18.4,3.2C76.2,128.3,76.1,128.3,76,128.3z"/>
</g>
<g>
	<path fill="#2D2A27" d="M164.3,125.8c-0.7-0.2-1.1-1-1.1-1.8c0.1-1,0.7-1.6,1.5-1.6l18.6,1.6c0.8,0.1,1.4,0.9,1.3,1.9
		c-0.1,1-0.7,1.6-1.5,1.6l-18.6-1.6C164.5,125.9,164.4,125.8,164.3,125.8z"/>
</g>
<g>
	<polygon fill="#E4B485" points="126.9,154.8 124.8,180.4 140.7,180.4 137,154.8 	"/>
</g>
<g>
	<path fill="#1E1E1E" d="M132.8,232.1c-8.9,0-16.6-1.6-17.1-1.8c-0.8-0.2-1.3-1.1-1.1-2c0.2-1,0.9-1.5,1.7-1.4
		c0.3,0,24.4,5.2,36.3-2.7c0.7-0.4,1.6-0.1,1.9,0.7c0.3,0.9,0.1,1.9-0.6,2.3C148.1,231,140,232.1,132.8,232.1z"/>
</g>
<g>
	<path fill="#313D4A" d="M200.6,278.5c0,0,33.1-1.6,34.9,19.9c1.8,21.5,2.1,166.5,2.1,166.5h-23.5l-2.4,45.6c0,0-25.4,17.8-35.2-5.1
		c-9.8-22.8-23.8-228.6-23.8-228.6L200.6,278.5z"/>
</g>
<g>
	<polygon fill="#253039" points="184.5,332.3 152.8,277 162.9,404.1 195.2,404.1 165.7,332.3 	"/>
</g>
<g>
	<path fill="#313D4A" d="M67.7,278.5c0,0-33.1-1.6-34.9,19.9C31,320,30.6,465,30.6,465h23.5l2.4,45.6c0,0,25.4,17.8,35.2-5.1
		c9.8-22.8,23.8-228.6,23.8-228.6L67.7,278.5z"/>
</g>
<g>
	<polygon fill="#253039" points="83.8,332.3 115.5,277 105.4,404.1 73.1,404.1 102.6,332.3 	"/>
</g>
<g>
	<polygon fill="#253039" points="54.1,465.1 56.8,331.2 49,465.1 	"/>
</g>
<g>
	<polygon fill="#253039" points="214.1,465.1 213.1,331.2 219.7,465.1 	"/>
</g>
</svg>
